<svg xmlns="http://www.w3.org/2000/svg" xmlns:xlink="http://www.w3.org/1999/xlink" width="178" zoomAndPan="magnify" viewBox="0 0 133.5 66.749998" height="89" preserveAspectRatio="xMidYMid meet" version="1.0"><defs><g/><clipPath id="997b0c562a"><path d="M 7.714844 4.132812 L 60.214844 4.132812 L 60.214844 62.632812 L 7.714844 62.632812 Z M 7.714844 4.132812 " clip-rule="nonzero"/></clipPath><clipPath id="24003ecc95"><path d="M 7.714844 24.410156 L 7.714844 42.359375 C 7.714844 46.210938 9.765625 49.769531 13.089844 51.695312 L 28.589844 60.671875 C 31.917969 62.597656 36.015625 62.597656 39.339844 60.671875 L 54.84375 51.695312 C 58.167969 49.769531 60.21875 46.210938 60.21875 42.359375 L 60.21875 24.410156 C 60.21875 20.558594 58.167969 16.996094 54.84375 15.070312 L 39.339844 6.097656 C 36.015625 4.171875 31.917969 4.171875 28.589844 6.097656 L 13.089844 15.070312 C 9.765625 17 7.714844 20.558594 7.714844 24.410156 Z M 7.714844 24.410156 " clip-rule="nonzero"/></clipPath><linearGradient x1="-4.240668" gradientTransform="matrix(0.133249, 0, 0, -0.133629, 7.71449, 62.380963)" y1="431.623672" x2="398.251154" gradientUnits="userSpaceOnUse" y2="2.376223" id="60903f71bd"><stop stop-opacity="1" stop-color="rgb(43.099976%, 94.898987%, 94.499207%)" offset="0"/><stop stop-opacity="1" stop-color="rgb(43.099976%, 94.898987%, 94.499207%)" offset="0.25"/><stop stop-opacity="1" stop-color="rgb(43.099976%, 94.898987%, 94.499207%)" offset="0.3125"/><stop stop-opacity="1" stop-color="rgb(43.099976%, 94.898987%, 94.499207%)" offset="0.34375"/><stop stop-opacity="1" stop-color="rgb(43.099976%, 94.898987%, 94.499207%)" offset="0.359375"/><stop stop-opacity="1" stop-color="rgb(43.138123%, 94.857788%, 94.500732%)" offset="0.367187"/><stop stop-opacity="1" stop-color="rgb(43.582153%, 94.390869%, 94.517517%)" offset="0.371094"/><stop stop-opacity="1" stop-color="rgb(43.988037%, 93.965149%, 94.532776%)" offset="0.375"/><stop stop-opacity="1" stop-color="rgb(44.392395%, 93.539429%, 94.548035%)" offset="0.378906"/><stop stop-opacity="1" stop-color="rgb(44.796753%, 93.115234%, 94.563293%)" offset="0.382812"/><stop stop-opacity="1" stop-color="rgb(45.201111%, 92.689514%, 94.578552%)" offset="0.386719"/><stop stop-opacity="1" stop-color="rgb(45.606995%, 92.26532%, 94.593811%)" offset="0.390625"/><stop stop-opacity="1" stop-color="rgb(46.011353%, 91.8396%, 94.607544%)" offset="0.394531"/><stop stop-opacity="1" stop-color="rgb(46.41571%, 91.413879%, 94.622803%)" offset="0.398437"/><stop stop-opacity="1" stop-color="rgb(46.820068%, 90.988159%, 94.638062%)" offset="0.402344"/><stop stop-opacity="1" stop-color="rgb(47.225952%, 90.563965%, 94.65332%)" offset="0.40625"/><stop stop-opacity="1" stop-color="rgb(47.63031%, 90.138245%, 94.668579%)" offset="0.410156"/><stop stop-opacity="1" stop-color="rgb(48.034668%, 89.71405%, 94.683838%)" offset="0.414062"/><stop stop-opacity="1" stop-color="rgb(48.439026%, 89.28833%, 94.699097%)" offset="0.417969"/><stop stop-opacity="1" stop-color="rgb(48.84491%, 88.86261%, 94.714355%)" offset="0.421875"/><stop stop-opacity="1" stop-color="rgb(49.249268%, 88.43689%, 94.729614%)" offset="0.425781"/><stop stop-opacity="1" stop-color="rgb(49.653625%, 88.012695%, 94.744873%)" offset="0.429688"/><stop stop-opacity="1" stop-color="rgb(50.057983%, 87.586975%, 94.760132%)" offset="0.433594"/><stop stop-opacity="1" stop-color="rgb(50.463867%, 87.162781%, 94.775391%)" offset="0.4375"/><stop stop-opacity="1" stop-color="rgb(50.868225%, 86.737061%, 94.790649%)" offset="0.441406"/><stop stop-opacity="1" stop-color="rgb(51.272583%, 86.31134%, 94.805908%)" offset="0.445312"/><stop stop-opacity="1" stop-color="rgb(51.676941%, 85.88562%, 94.821167%)" offset="0.449219"/><stop stop-opacity="1" stop-color="rgb(52.082825%, 85.461426%, 94.836426%)" offset="0.453125"/><stop stop-opacity="1" stop-color="rgb(52.487183%, 85.035706%, 94.850159%)" offset="0.457031"/><stop stop-opacity="1" stop-color="rgb(52.891541%, 84.611511%, 94.865417%)" offset="0.460937"/><stop stop-opacity="1" stop-color="rgb(53.295898%, 84.185791%, 94.880676%)" offset="0.464844"/><stop stop-opacity="1" stop-color="rgb(53.701782%, 83.760071%, 94.895935%)" offset="0.46875"/><stop stop-opacity="1" stop-color="rgb(54.10614%, 83.334351%, 94.911194%)" offset="0.472656"/><stop stop-opacity="1" stop-color="rgb(54.510498%, 82.910156%, 94.926453%)" offset="0.476562"/><stop stop-opacity="1" stop-color="rgb(54.914856%, 82.484436%, 94.941711%)" offset="0.480469"/><stop stop-opacity="1" stop-color="rgb(55.32074%, 82.060242%, 94.95697%)" offset="0.484375"/><stop stop-opacity="1" stop-color="rgb(55.725098%, 81.634521%, 94.972229%)" offset="0.488281"/><stop stop-opacity="1" stop-color="rgb(56.129456%, 81.208801%, 94.987488%)" offset="0.492188"/><stop stop-opacity="1" stop-color="rgb(56.533813%, 80.783081%, 95.002747%)" offset="0.496094"/><stop stop-opacity="1" stop-color="rgb(56.939697%, 80.358887%, 95.018005%)" offset="0.5"/><stop stop-opacity="1" stop-color="rgb(57.344055%, 79.933167%, 95.033264%)" offset="0.503906"/><stop stop-opacity="1" stop-color="rgb(57.749939%, 79.508972%, 95.048523%)" offset="0.507812"/><stop stop-opacity="1" stop-color="rgb(58.154297%, 79.083252%, 95.062256%)" offset="0.511719"/><stop stop-opacity="1" stop-color="rgb(58.558655%, 78.657532%, 95.077515%)" offset="0.515625"/><stop stop-opacity="1" stop-color="rgb(58.963013%, 78.231812%, 95.092773%)" offset="0.519531"/><stop stop-opacity="1" stop-color="rgb(59.368896%, 77.807617%, 95.108032%)" offset="0.523438"/><stop stop-opacity="1" stop-color="rgb(59.773254%, 77.381897%, 95.123291%)" offset="0.527344"/><stop stop-opacity="1" stop-color="rgb(60.177612%, 76.957703%, 95.13855%)" offset="0.53125"/><stop stop-opacity="1" stop-color="rgb(60.58197%, 76.531982%, 95.153809%)" offset="0.535156"/><stop stop-opacity="1" stop-color="rgb(60.987854%, 76.106262%, 95.169067%)" offset="0.539062"/><stop stop-opacity="1" stop-color="rgb(61.392212%, 75.680542%, 95.184326%)" offset="0.542969"/><stop stop-opacity="1" stop-color="rgb(61.79657%, 75.256348%, 95.199585%)" offset="0.546875"/><stop stop-opacity="1" stop-color="rgb(62.200928%, 74.830627%, 95.214844%)" offset="0.550781"/><stop stop-opacity="1" stop-color="rgb(62.606812%, 74.406433%, 95.230103%)" offset="0.554687"/><stop stop-opacity="1" stop-color="rgb(63.011169%, 73.980713%, 95.245361%)" offset="0.558594"/><stop stop-opacity="1" stop-color="rgb(63.415527%, 73.554993%, 95.26062%)" offset="0.5625"/><stop stop-opacity="1" stop-color="rgb(63.819885%, 73.129272%, 95.275879%)" offset="0.566406"/><stop stop-opacity="1" stop-color="rgb(64.225769%, 72.705078%, 95.291138%)" offset="0.570312"/><stop stop-opacity="1" stop-color="rgb(64.630127%, 72.279358%, 95.304871%)" offset="0.574219"/><stop stop-opacity="1" stop-color="rgb(65.034485%, 71.855164%, 95.320129%)" offset="0.578125"/><stop stop-opacity="1" stop-color="rgb(65.438843%, 71.429443%, 95.335388%)" offset="0.582031"/><stop stop-opacity="1" stop-color="rgb(65.844727%, 71.003723%, 95.350647%)" offset="0.585938"/><stop stop-opacity="1" stop-color="rgb(66.249084%, 70.578003%, 95.365906%)" offset="0.589844"/><stop stop-opacity="1" stop-color="rgb(66.653442%, 70.153809%, 95.381165%)" offset="0.59375"/><stop stop-opacity="1" stop-color="rgb(67.0578%, 69.728088%, 95.396423%)" offset="0.597656"/><stop stop-opacity="1" stop-color="rgb(67.463684%, 69.303894%, 95.411682%)" offset="0.601562"/><stop stop-opacity="1" stop-color="rgb(67.868042%, 68.878174%, 95.426941%)" offset="0.605469"/><stop stop-opacity="1" stop-color="rgb(68.2724%, 68.452454%, 95.4422%)" offset="0.609375"/><stop stop-opacity="1" stop-color="rgb(68.676758%, 68.026733%, 95.457458%)" offset="0.613281"/><stop stop-opacity="1" stop-color="rgb(69.082642%, 67.602539%, 95.472717%)" offset="0.617187"/><stop stop-opacity="1" stop-color="rgb(69.487%, 67.176819%, 95.487976%)" offset="0.621094"/><stop stop-opacity="1" stop-color="rgb(69.891357%, 66.752625%, 95.503235%)" offset="0.625"/><stop stop-opacity="1" stop-color="rgb(70.295715%, 66.326904%, 95.518494%)" offset="0.628906"/><stop stop-opacity="1" stop-color="rgb(70.701599%, 65.901184%, 95.533752%)" offset="0.632812"/><stop stop-opacity="1" stop-color="rgb(71.105957%, 65.475464%, 95.547485%)" offset="0.636719"/><stop stop-opacity="1" stop-color="rgb(71.510315%, 65.05127%, 95.562744%)" offset="0.640625"/><stop stop-opacity="1" stop-color="rgb(71.914673%, 64.625549%, 95.578003%)" offset="0.644531"/><stop stop-opacity="1" stop-color="rgb(72.320557%, 64.201355%, 95.593262%)" offset="0.648438"/><stop stop-opacity="1" stop-color="rgb(72.724915%, 63.775635%, 95.608521%)" offset="0.652344"/><stop stop-opacity="1" stop-color="rgb(73.129272%, 63.349915%, 95.623779%)" offset="0.65625"/><stop stop-opacity="1" stop-color="rgb(73.53363%, 62.924194%, 95.639038%)" offset="0.660156"/><stop stop-opacity="1" stop-color="rgb(73.939514%, 62.5%, 95.654297%)" offset="0.664062"/><stop stop-opacity="1" stop-color="rgb(74.343872%, 62.07428%, 95.669556%)" offset="0.667969"/><stop stop-opacity="1" stop-color="rgb(74.74823%, 61.650085%, 95.684814%)" offset="0.671875"/><stop stop-opacity="1" stop-color="rgb(75.152588%, 61.224365%, 95.700073%)" offset="0.675781"/><stop stop-opacity="1" stop-color="rgb(75.558472%, 60.798645%, 95.715332%)" offset="0.679687"/><stop stop-opacity="1" stop-color="rgb(75.96283%, 60.372925%, 95.730591%)" offset="0.683594"/><stop stop-opacity="1" stop-color="rgb(76.367188%, 59.94873%, 95.74585%)" offset="0.6875"/><stop stop-opacity="1" stop-color="rgb(76.771545%, 59.52301%, 95.759583%)" offset="0.691406"/><stop stop-opacity="1" stop-color="rgb(77.177429%, 59.098816%, 95.774841%)" offset="0.695312"/><stop stop-opacity="1" stop-color="rgb(77.581787%, 58.673096%, 95.7901%)" offset="0.699219"/><stop stop-opacity="1" stop-color="rgb(77.986145%, 58.247375%, 95.805359%)" offset="0.703125"/><stop stop-opacity="1" stop-color="rgb(78.390503%, 57.821655%, 95.820618%)" offset="0.707031"/><stop stop-opacity="1" stop-color="rgb(78.796387%, 57.397461%, 95.835876%)" offset="0.710937"/><stop stop-opacity="1" stop-color="rgb(79.200745%, 56.971741%, 95.851135%)" offset="0.714844"/><stop stop-opacity="1" stop-color="rgb(79.605103%, 56.547546%, 95.866394%)" offset="0.71875"/><stop stop-opacity="1" stop-color="rgb(80.00946%, 56.121826%, 95.881653%)" offset="0.722656"/><stop stop-opacity="1" stop-color="rgb(80.415344%, 55.696106%, 95.896912%)" offset="0.726562"/><stop stop-opacity="1" stop-color="rgb(80.819702%, 55.270386%, 95.91217%)" offset="0.730469"/><stop stop-opacity="1" stop-color="rgb(81.22406%, 54.846191%, 95.927429%)" offset="0.734375"/><stop stop-opacity="1" stop-color="rgb(81.628418%, 54.420471%, 95.942688%)" offset="0.738281"/><stop stop-opacity="1" stop-color="rgb(82.034302%, 53.996277%, 95.957947%)" offset="0.742187"/><stop stop-opacity="1" stop-color="rgb(82.43866%, 53.570557%, 95.973206%)" offset="0.746094"/><stop stop-opacity="1" stop-color="rgb(82.843018%, 53.144836%, 95.988464%)" offset="0.75"/><stop stop-opacity="1" stop-color="rgb(83.247375%, 52.719116%, 96.002197%)" offset="0.753906"/><stop stop-opacity="1" stop-color="rgb(83.653259%, 52.294922%, 96.017456%)" offset="0.757812"/><stop stop-opacity="1" stop-color="rgb(84.057617%, 51.869202%, 96.032715%)" offset="0.761719"/><stop stop-opacity="1" stop-color="rgb(84.461975%, 51.445007%, 96.047974%)" offset="0.765625"/><stop stop-opacity="1" stop-color="rgb(84.866333%, 51.019287%, 96.063232%)" offset="0.769531"/><stop stop-opacity="1" stop-color="rgb(85.272217%, 50.593567%, 96.078491%)" offset="0.773438"/><stop stop-opacity="1" stop-color="rgb(85.676575%, 50.167847%, 96.09375%)" offset="0.777344"/><stop stop-opacity="1" stop-color="rgb(86.080933%, 49.743652%, 96.109009%)" offset="0.78125"/><stop stop-opacity="1" stop-color="rgb(86.485291%, 49.317932%, 96.124268%)" offset="0.785156"/><stop stop-opacity="1" stop-color="rgb(86.891174%, 48.893738%, 96.139526%)" offset="0.789062"/><stop stop-opacity="1" stop-color="rgb(87.295532%, 48.468018%, 96.154785%)" offset="0.792969"/><stop stop-opacity="1" stop-color="rgb(87.69989%, 48.042297%, 96.170044%)" offset="0.796875"/><stop stop-opacity="1" stop-color="rgb(88.104248%, 47.616577%, 96.185303%)" offset="0.800781"/><stop stop-opacity="1" stop-color="rgb(88.510132%, 47.192383%, 96.200562%)" offset="0.804688"/><stop stop-opacity="1" stop-color="rgb(88.91449%, 46.766663%, 96.21582%)" offset="0.808594"/><stop stop-opacity="1" stop-color="rgb(89.318848%, 46.342468%, 96.231079%)" offset="0.8125"/><stop stop-opacity="1" stop-color="rgb(89.723206%, 45.916748%, 96.244812%)" offset="0.816406"/><stop stop-opacity="1" stop-color="rgb(90.129089%, 45.491028%, 96.260071%)" offset="0.820312"/><stop stop-opacity="1" stop-color="rgb(90.533447%, 45.065308%, 96.27533%)" offset="0.824219"/><stop stop-opacity="1" stop-color="rgb(90.937805%, 44.641113%, 96.290588%)" offset="0.828125"/><stop stop-opacity="1" stop-color="rgb(91.342163%, 44.215393%, 96.305847%)" offset="0.832031"/><stop stop-opacity="1" stop-color="rgb(91.748047%, 43.791199%, 96.321106%)" offset="0.835937"/><stop stop-opacity="1" stop-color="rgb(92.152405%, 43.365479%, 96.336365%)" offset="0.839844"/><stop stop-opacity="1" stop-color="rgb(92.556763%, 42.939758%, 96.351624%)" offset="0.84375"/><stop stop-opacity="1" stop-color="rgb(92.961121%, 42.514038%, 96.366882%)" offset="0.847656"/><stop stop-opacity="1" stop-color="rgb(93.367004%, 42.089844%, 96.382141%)" offset="0.851562"/><stop stop-opacity="1" stop-color="rgb(93.771362%, 41.664124%, 96.3974%)" offset="0.855469"/><stop stop-opacity="1" stop-color="rgb(94.17572%, 41.239929%, 96.412659%)" offset="0.859375"/><stop stop-opacity="1" stop-color="rgb(94.580078%, 40.814209%, 96.427917%)" offset="0.863281"/><stop stop-opacity="1" stop-color="rgb(94.985962%, 40.388489%, 96.443176%)" offset="0.867187"/><stop stop-opacity="1" stop-color="rgb(95.39032%, 39.962769%, 96.456909%)" offset="0.871094"/><stop stop-opacity="1" stop-color="rgb(95.794678%, 39.538574%, 96.472168%)" offset="0.875"/><stop stop-opacity="1" stop-color="rgb(89.430237%, 31.544495%, 89.768982%)" offset="0.878906"/><stop stop-opacity="1" stop-color="rgb(83.065796%, 23.550415%, 83.065796%)" offset="0.882812"/><stop stop-opacity="1" stop-color="rgb(76.832581%, 16.474915%, 76.832581%)" offset="0.886719"/><stop stop-opacity="1" stop-color="rgb(70.599365%, 9.399414%, 70.599365%)" offset="0.890625"/><stop stop-opacity="1" stop-color="rgb(70.599365%, 9.399414%, 70.599365%)" offset="0.90625"/><stop stop-opacity="1" stop-color="rgb(70.599365%, 9.399414%, 70.599365%)" offset="0.9375"/><stop stop-opacity="1" stop-color="rgb(70.599365%, 9.399414%, 70.599365%)" offset="1"/></linearGradient><clipPath id="1dffb58fdc"><path d="M 41.121094 27.554688 L 52.757812 27.554688 L 52.757812 39.195312 L 41.121094 39.195312 Z M 41.121094 27.554688 " clip-rule="nonzero"/></clipPath><clipPath id="fa210828a2"><path d="M 46.9375 27.554688 C 43.726562 27.554688 41.121094 30.160156 41.121094 33.375 C 41.121094 36.589844 43.726562 39.195312 46.9375 39.195312 C 50.152344 39.195312 52.757812 36.589844 52.757812 33.375 C 52.757812 30.160156 50.152344 27.554688 46.9375 27.554688 " clip-rule="nonzero"/></clipPath><clipPath id="7ad63031e7"><path d="M 28.210938 14.648438 L 39.851562 14.648438 L 39.851562 26.289062 L 28.210938 26.289062 Z M 28.210938 14.648438 " clip-rule="nonzero"/></clipPath><clipPath id="cb7f0de1a1"><path d="M 34.03125 14.648438 C 30.816406 14.648438 28.210938 17.253906 28.210938 20.46875 C 28.210938 23.683594 30.816406 26.289062 34.03125 26.289062 C 37.246094 26.289062 39.851562 23.683594 39.851562 20.46875 C 39.851562 17.253906 37.246094 14.648438 34.03125 14.648438 " clip-rule="nonzero"/></clipPath><clipPath id="4b2c24d1c3"><path d="M 15.304688 27.554688 L 26.945312 27.554688 L 26.945312 39.195312 L 15.304688 39.195312 Z M 15.304688 27.554688 " clip-rule="nonzero"/></clipPath><clipPath id="05b7b03209"><path d="M 21.125 27.554688 C 17.910156 27.554688 15.304688 30.160156 15.304688 33.375 C 15.304688 36.589844 17.910156 39.195312 21.125 39.195312 C 24.339844 39.195312 26.945312 36.589844 26.945312 33.375 C 26.945312 30.160156 24.339844 27.554688 21.125 27.554688 " clip-rule="nonzero"/></clipPath><clipPath id="9806b51f56"><path d="M 28.210938 40.460938 L 39.851562 40.460938 L 39.851562 52.101562 L 28.210938 52.101562 Z M 28.210938 40.460938 " clip-rule="nonzero"/></clipPath><clipPath id="973d42fcde"><path d="M 34.03125 40.460938 C 30.816406 40.460938 28.210938 43.066406 28.210938 46.28125 C 28.210938 49.496094 30.816406 52.101562 34.03125 52.101562 C 37.246094 52.101562 39.851562 49.496094 39.851562 46.28125 C 39.851562 43.066406 37.246094 40.460938 34.03125 40.460938 " clip-rule="nonzero"/></clipPath></defs><g clip-path="url(#997b0c562a)"><g clip-path="url(#24003ecc95)"><path fill="url(#60903f71bd)" d="M 7.714844 62.597656 L 7.714844 4.171875 L 60.214844 4.171875 L 60.214844 62.597656 Z M 7.714844 62.597656 " fill-rule="nonzero"/></g></g><g clip-path="url(#1dffb58fdc)"><g clip-path="url(#fa210828a2)"><path fill="#000020" d="M 41.121094 27.554688 L 52.757812 27.554688 L 52.757812 39.195312 L 41.121094 39.195312 Z M 41.121094 27.554688 " fill-opacity="1" fill-rule="nonzero"/></g></g><g clip-path="url(#7ad63031e7)"><g clip-path="url(#cb7f0de1a1)"><path fill="#000020" d="M 28.210938 14.648438 L 39.851562 14.648438 L 39.851562 26.289062 L 28.210938 26.289062 Z M 28.210938 14.648438 " fill-opacity="1" fill-rule="nonzero"/></g></g><g clip-path="url(#4b2c24d1c3)"><g clip-path="url(#05b7b03209)"><path fill="#000020" d="M 15.304688 27.554688 L 26.945312 27.554688 L 26.945312 39.195312 L 15.304688 39.195312 Z M 15.304688 27.554688 " fill-opacity="1" fill-rule="nonzero"/></g></g><g clip-path="url(#9806b51f56)"><g clip-path="url(#973d42fcde)"><path fill="#000020" d="M 28.210938 40.460938 L 39.851562 40.460938 L 39.851562 52.101562 L 28.210938 52.101562 Z M 28.210938 40.460938 " fill-opacity="1" fill-rule="nonzero"/></g></g><g fill="#fdfcff" fill-opacity="1"><g transform="translate(67.435384, 41.009515)"><g><path d="M 8.597656 -12.503906 C 8.597656 -14.296875 7.625 -15.25 5.851562 -15.25 L 3.71875 -15.25 C 1.925781 -15.25 0.953125 -14.296875 0.953125 -12.503906 L 0.953125 -2.746094 C 0.953125 -0.953125 1.925781 0 3.71875 0 L 5.851562 0 C 7.625 0 8.597656 -0.953125 8.597656 -2.746094 L 8.597656 -4.804688 C 8.597656 -4.996094 8.484375 -5.109375 8.292969 -5.109375 L 6.386719 -5.109375 C 6.175781 -5.109375 6.082031 -4.996094 6.082031 -4.804688 L 6.082031 -3.277344 C 6.082031 -2.765625 5.8125 -2.515625 5.320312 -2.515625 L 4.328125 -2.515625 C 3.832031 -2.515625 3.566406 -2.765625 3.566406 -3.277344 L 3.566406 -11.972656 C 3.566406 -12.464844 3.8125 -12.734375 4.328125 -12.734375 L 5.320312 -12.734375 C 5.8125 -12.734375 6.082031 -12.464844 6.082031 -11.972656 L 6.082031 -10.445312 C 6.082031 -10.253906 6.175781 -10.140625 6.386719 -10.140625 L 8.292969 -10.140625 C 8.484375 -10.140625 8.597656 -10.253906 8.597656 -10.445312 Z M 8.597656 -12.503906 "/></g></g></g><g fill="#fdfcff" fill-opacity="1"><g transform="translate(76.792912, 41.009515)"><g><path d="M 7.777344 -15.25 C 7.546875 -15.25 7.414062 -15.15625 7.339844 -14.945312 L 5.203125 -9.472656 L 3.070312 -14.945312 C 2.992188 -15.15625 2.859375 -15.25 2.628906 -15.25 L 0.722656 -15.25 C 0.4375 -15.25 0.304688 -15.078125 0.417969 -14.8125 L 3.90625 -6.328125 L 3.90625 -0.382812 C 3.90625 -0.132812 4.042969 0 4.289062 0 L 6.117188 0 C 6.367188 0 6.5 -0.132812 6.5 -0.382812 L 6.5 -6.328125 L 9.988281 -14.8125 C 10.101562 -15.078125 9.96875 -15.25 9.683594 -15.25 Z M 7.777344 -15.25 "/></g></g></g><g fill="#fdfcff" fill-opacity="1"><g transform="translate(87.008065, 41.009515)"><g><path d="M 8.921875 -15.25 C 8.691406 -15.25 8.558594 -15.136719 8.5 -14.90625 L 6.386719 -5.414062 L 4.269531 -14.90625 C 4.210938 -15.136719 4.078125 -15.25 3.851562 -15.25 L 1.335938 -15.25 C 1.085938 -15.25 0.953125 -15.117188 0.953125 -14.867188 L 0.953125 -0.382812 C 0.953125 -0.132812 1.085938 0 1.335938 0 L 3.089844 0 C 3.335938 0 3.46875 -0.132812 3.46875 -0.382812 L 3.46875 -8.960938 L 3.601562 -8.960938 L 5.488281 -0.34375 C 5.546875 -0.113281 5.679688 0 5.910156 0 L 6.84375 0 C 7.070312 0 7.207031 -0.113281 7.261719 -0.34375 L 9.148438 -8.960938 L 9.285156 -8.960938 L 9.285156 -0.382812 C 9.285156 -0.132812 9.417969 0 9.664062 0 L 11.4375 0 C 11.683594 0 11.820312 -0.132812 11.820312 -0.382812 L 11.820312 -14.867188 C 11.820312 -15.117188 11.683594 -15.25 11.4375 -15.25 Z M 8.921875 -15.25 "/></g></g></g><g fill="#fdfcff" fill-opacity="1"><g transform="translate(99.586436, 41.009515)"><g><path d="M 10.140625 0 C 10.371094 0 10.445312 -0.113281 10.40625 -0.324219 L 7.242188 -14.984375 C 7.207031 -15.171875 7.089844 -15.25 6.917969 -15.25 L 4.269531 -15.25 C 4.097656 -15.25 3.984375 -15.171875 3.945312 -14.984375 L 0.78125 -0.324219 C 0.722656 -0.113281 0.820312 0 1.03125 0 L 3.070312 0 C 3.242188 0 3.335938 -0.09375 3.375 -0.265625 L 3.890625 -3.050781 L 7.28125 -3.050781 L 7.816406 -0.265625 C 7.855469 -0.09375 7.949219 0 8.121094 0 Z M 6.804688 -5.261719 L 4.367188 -5.261719 L 5.585938 -11.914062 Z M 6.804688 -5.261719 "/></g></g></g><g fill="#fdfcff" fill-opacity="1"><g transform="translate(110.563919, 41.009515)"><g><path d="M 0.875 -15.25 C 0.6875 -15.25 0.570312 -15.136719 0.570312 -14.945312 L 0.570312 -13.039062 C 0.570312 -12.847656 0.6875 -12.734375 0.875 -12.734375 L 3.089844 -12.734375 L 3.089844 -0.304688 C 3.089844 -0.09375 3.203125 0 3.394531 0 L 5.375 0 C 5.585938 0 5.679688 -0.09375 5.679688 -0.304688 L 5.679688 -12.734375 L 7.890625 -12.734375 C 8.101562 -12.734375 8.195312 -12.847656 8.195312 -13.039062 L 8.195312 -14.945312 C 8.195312 -15.136719 8.101562 -15.25 7.890625 -15.25 Z M 0.875 -15.25 "/></g></g></g><g fill="#fdfcff" fill-opacity="1"><g transform="translate(119.14006, 41.009515)"><g><path d="M 8.558594 -14.945312 C 8.558594 -15.136719 8.484375 -15.25 8.253906 -15.25 L 1.238281 -15.25 C 1.066406 -15.25 0.953125 -15.136719 0.953125 -14.945312 L 0.953125 -0.304688 C 0.953125 -0.113281 1.066406 0 1.238281 0 L 8.253906 0 C 8.484375 0 8.558594 -0.113281 8.558594 -0.304688 L 8.558594 -2.210938 C 8.558594 -2.421875 8.484375 -2.515625 8.253906 -2.515625 L 3.488281 -2.515625 L 3.488281 -6.367188 L 7.128906 -6.367188 C 7.320312 -6.367188 7.433594 -6.480469 7.433594 -6.691406 L 7.433594 -8.578125 C 7.433594 -8.789062 7.320312 -8.902344 7.128906 -8.902344 L 3.488281 -8.902344 L 3.488281 -12.714844 L 8.253906 -12.714844 C 8.484375 -12.714844 8.558594 -12.847656 8.558594 -13.039062 Z M 8.558594 -14.945312 "/></g></g></g></svg>